# xmcd
#
# Track frame offsets: 
#        150
#        18970
#        42398
#        57270
#
# Disc length: 847 seconds
#
# Revision: 2
# Processed by: cddbd v1.5.2PL0 Copyright (c) Steve Scherf et al.
# Submitted via: ExactAudioCopyFreeDBPlugin 1.0
#
DISCID=2b034d04
DTITLE=The Doors - The Ghost Song
DYEAR=1900
DGENRE=Psychedelic Rock
TTITLE0=The Ghost Song
TTITLE1=Roadhouse Blues
TTITLE2=Love Me Two Times
TTITLE3=Interview, Stockholm
EXTD=
EXTT0=
EXTT1=
EXTT2=
EXTT3=
PLAYORDER=
